static optimization
version=1
nRows=6
nColumns=93
inDegrees=yes
endheader
time	glut_med1_r	glut_med2_r	glut_med3_r	glut_min1_r	glut_min2_r	glut_min3_r	semimem_r	semiten_r	bifemlh_r	bifemsh_r	sar_r	add_long_r	add_brev_r	add_mag1_r	add_mag2_r	add_mag3_r	tfl_r	pect_r	grac_r	glut_max1_r	glut_max2_r	glut_max3_r	iliacus_r	psoas_r	quad_fem_r	gem_r	peri_r	rect_fem_r	vas_med_r	vas_int_r	vas_lat_r	med_gas_r	lat_gas_r	soleus_r	tib_post_r	flex_dig_r	flex_hal_r	tib_ant_r	per_brev_r	per_long_r	per_tert_r	ext_dig_r	ext_hal_r	glut_med1_l	glut_med2_l	glut_med3_l	glut_min1_l	glut_min2_l	glut_min3_l	semimem_l	semiten_l	bifemlh_l	bifemsh_l	sar_l	add_long_l	add_brev_l	add_mag1_l	add_mag2_l	add_mag3_l	tfl_l	pect_l	grac_l	glut_max1_l	glut_max2_l	glut_max3_l	iliacus_l	psoas_l	quad_fem_l	gem_l	peri_l	rect_fem_l	vas_med_l	vas_int_l	vas_lat_l	med_gas_l	lat_gas_l	soleus_l	tib_post_l	flex_dig_l	flex_hal_l	tib_ant_l	per_brev_l	per_long_l	per_tert_l	ext_dig_l	ext_hal_l	ercspn_r	ercspn_l	intobl_r	intobl_l	extobl_r	extobl_l
0.620000	14.517289	42.621498	88.076024	2.653176	7.696915	15.711789	303.298557	30.297731	99.561595	164.060328	8.306545	0.000000	0.000000	0.000000	0.000000	0.000000	6.575501	0.000000	0.000000	25.285979	10.576262	0.000000	32.367713	47.768436	1.592195	3.986361	41.584292	0.000000	0.000000	0.000000	0.000000	107.116151	18.280225	0.000000	0.000000	0.000000	0.000000	167.827223	0.000000	0.000000	4.085680	47.827080	5.062645	511.204777	138.691214	49.958569	60.947922	55.486180	46.120411	0.000000	0.000000	0.000000	220.451394	16.897530	0.000000	0.000000	0.000000	0.000000	0.000000	50.252702	0.000000	0.000000	0.000000	0.000000	0.000000	614.169734	642.304701	0.000000	0.000000	0.974200	0.000000	0.000000	0.000000	0.000000	1106.420693	213.711411	927.680657	52.781655	1.882379	2.807400	0.000000	1.961762	14.282183	0.000000	0.000000	0.000000	0.000000	0.000000	0.000000	0.000000	0.000000	0.000000
0.636000	0.000000	0.000000	10.081152	0.000000	0.000000	0.000000	400.066902	50.099955	191.317525	94.708709	0.000000	9.226223	8.168556	11.872738	7.742540	8.759996	0.000000	1.249231	5.410711	4.157600	28.382430	33.461237	0.000000	0.000000	24.261399	2.767605	8.826840	0.000000	0.000000	0.000000	0.000000	10.909936	0.690121	0.000000	0.000000	0.000000	0.000000	103.230009	0.000000	0.000000	2.516937	29.430403	3.114066	436.533490	114.384018	35.815419	53.687057	48.387686	39.512538	0.000000	0.000000	0.000000	196.174313	15.860425	0.000000	0.000000	0.000000	0.000000	0.000000	46.200903	0.000000	0.000000	0.000000	0.000000	0.000000	600.609163	628.305838	0.000000	0.000000	0.000000	0.000000	0.000000	0.000000	0.000000	1008.978064	195.085160	1068.486006	60.737431	2.163548	3.233098	0.000000	2.255168	16.464690	0.000000	0.000000	0.000000	0.000000	0.000000	0.000000	0.000000	0.000000	0.000000
0.652000	0.000000	0.000000	0.000000	0.000000	0.000000	0.000000	231.857352	33.370467	142.843150	0.000000	0.000000	63.659183	37.493593	40.333201	32.564932	52.054617	0.000000	5.686977	6.085637	0.125046	45.184503	89.364110	0.000000	0.000000	31.770675	1.878564	0.000000	0.000000	11.025239	12.204636	22.057128	0.000000	0.000000	0.000000	0.000000	0.000000	0.000000	163.640632	0.000000	0.000000	3.997498	46.674810	4.937000	364.896973	91.258147	23.301700	47.177190	42.044055	33.676980	0.000000	0.000000	0.000000	168.401792	15.221099	0.000000	0.000000	0.000000	0.000000	0.000000	43.637735	0.000000	0.000000	0.000000	0.000000	0.000000	607.171656	635.676351	0.000000	0.000000	0.000000	48.183045	0.000000	0.000000	0.000000	890.435970	172.354952	1152.571207	65.479640	2.330719	3.487374	0.000000	2.429784	17.771268	0.000000	0.000000	0.000000	0.000000	0.000000	0.000000	0.000000	0.000000	0.000000
0.668000	0.000000	0.000000	0.000000	0.000000	0.000000	0.000000	192.559442	28.597951	126.489109	0.000000	0.000000	61.033458	36.482780	39.694677	31.856183	50.734057	0.000000	5.504038	5.535999	1.201219	46.993418	88.852456	0.000000	0.000000	33.019210	2.094815	0.000000	0.000000	57.685582	63.715324	118.797725	0.000000	0.000000	0.000000	0.000000	0.000000	0.000000	205.157263	0.000000	0.000000	5.020546	58.544247	6.190008	295.842248	71.459771	16.082920	40.387725	35.741929	28.365398	0.000000	0.000000	0.000000	138.695688	14.232652	0.000000	0.000000	0.000000	0.000000	0.000000	40.395332	0.000000	0.000000	0.000000	0.000000	0.000000	589.787630	618.113761	0.000000	0.000000	1.114999	161.594775	0.000000	0.000000	0.000000	736.880712	142.763388	1063.698245	60.423722	2.150351	3.218170	0.000000	2.241811	16.401439	0.000000	0.000000	0.000000	0.000000	0.000000	0.000000	0.000000	0.000000	0.000000
0.684000	0.000000	0.000000	0.000000	0.000000	0.000000	0.000000	209.315038	29.490025	126.261095	0.000000	0.000000	34.154743	26.080977	29.549854	27.468935	55.443969	0.000000	2.209021	4.059693	16.147463	63.098439	81.199816	0.000000	0.000000	13.153585	0.000000	0.000000	0.000000	101.283470	112.025152	213.920336	0.000000	0.000000	0.000000	0.000000	0.000000	0.000000	213.775581	0.000000	0.000000	5.238536	61.028087	6.450556	214.855859	53.504335	19.060214	32.290877	28.812096	23.565019	0.000000	0.000000	0.000000	105.603918	12.946711	0.000000	0.000000	0.000000	0.000000	0.000000	36.260655	2.574307	0.000000	0.000000	0.000000	0.000000	560.455544	588.946935	0.000000	0.000000	6.631258	260.996561	0.000000	0.000000	0.000000	568.986429	110.354272	915.811593	52.054571	1.853763	2.770485	0.000000	1.933030	14.110905	0.000000	0.000000	0.000000	0.000000	0.000000	0.000000	0.000000	0.000000	0.000000
0.700000	29.379997	13.008350	10.980790	0.942553	0.432477	0.073840	211.475792	28.688963	124.461728	0.000000	0.000000	3.861622	14.846646	20.057374	22.513980	56.876101	0.000000	0.000000	2.455352	32.209017	85.928664	77.879092	0.000000	0.000000	1.810598	0.000000	0.000000	0.000000	146.582391	162.372421	314.125638	0.000000	0.000000	0.000000	0.000000	0.000000	0.000000	222.681640	0.000000	0.000000	5.461784	63.586489	6.720683	143.041562	35.976413	17.478151	24.571971	22.078219	18.520194	0.000000	0.000000	0.000000	71.192081	11.377887	19.013885	0.000000	0.000000	0.000000	0.000000	31.432336	5.085148	0.000000	0.000000	0.000000	0.000000	510.806060	537.996308	0.000000	0.000000	9.597435	333.579620	0.000000	0.000000	0.000000	392.470119	76.223351	705.412751	40.168599	1.434250	2.136098	0.000000	1.494613	10.858014	0.000000	0.000000	0.000000	0.000000	0.000000	0.000000	0.000000	0.000000	0.000000
